<?xml version="1.0" standalone="no"?>
<!DOCTYPE svg PUBLIC "-//W3C//DTD SVG 20010904//EN"
 "http://www.w3.org/TR/2001/REC-SVG-20010904/DTD/svg10.dtd">
<svg version="1.0" xmlns="http://www.w3.org/2000/svg"
 width="225.000000pt" height="225.000000pt" viewBox="0 0 225.000000 225.000000"
 preserveAspectRatio="xMidYMid meet">
<metadata>
Created by potrace 1.14, written by Peter Selinger 2001-2017
</metadata>
<g transform="translate(0.000000,225.000000) scale(0.100000,-0.100000)"
fill="#000000" stroke="none">
<path d="M1070 2100 c0 -37 -2 -39 -37 -46 -82 -15 -183 -84 -220 -151 l-23
-40 21 -19 c21 -19 22 -19 33 0 42 72 124 136 194 149 30 6 32 5 32 -22 0 -16
-6 -31 -15 -35 -11 -4 -15 -20 -15 -56 0 -47 12 -66 23 -37 4 9 6 9 6 0 1 -16
-39 -43 -64 -43 -12 0 -30 7 -41 15 -18 13 -18 14 -1 15 10 0 15 4 12 10 -3 5
0 7 8 4 8 -3 18 0 22 6 8 12 -13 42 -25 35 -4 -2 -12 7 -18 20 -14 30 -28 32
-37 7 -3 -11 -17 -24 -31 -31 -26 -12 -28 -36 -3 -36 23 0 38 -18 27 -32 -17
-21 -59 -15 -94 12 -18 14 -35 25 -38 25 -3 0 5 -19 18 -42 12 -24 29 -65 36
-91 12 -45 15 -48 39 -41 105 28 295 32 406 9 38 -8 71 -15 71 -15 1 0 4 17 8
38 3 20 17 59 31 86 22 44 23 51 10 81 -33 81 -154 171 -237 177 -22 2 -34 8
-34 18 -1 65 -3 70 -34 70 -28 0 -30 -2 -30 -40z m40 -20 c0 -5 -4 -10 -10
-10 -5 0 -10 5 -10 10 0 6 5 10 10 10 6 0 10 -4 10 -10z m158 -132 c23 -16 55
-48 69 -71 15 -23 28 -44 30 -46 1 -2 11 2 20 9 10 7 5 1 -10 -14 -29 -27 -75
-34 -94 -15 -14 14 5 39 24 32 18 -7 29 27 12 37 -7 5 -16 7 -20 5 -3 -3 -12
7 -19 20 -16 30 -27 32 -35 6 -3 -11 -15 -23 -26 -26 -10 -4 -19 -15 -19 -27
0 -12 5 -18 13 -15 19 7 38 -18 24 -32 -21 -21 -62 -12 -93 21 -16 18 -19 24
-6 14 l22 -19 0 52 c0 37 -4 53 -15 57 -9 4 -15 19 -15 39 l0 32 48 -15 c26
-8 66 -28 90 -44z m-310 -205 c-2 -10 -10 -18 -18 -18 -8 0 -16 8 -18 18 -2
12 3 17 18 17 15 0 20 -5 18 -17z m320 0 c-2 -10 -10 -18 -18 -18 -8 0 -16 8
-18 18 -2 12 3 17 18 17 15 0 20 -5 18 -17z"/>
<path d="M939 1676 c-82 -19 -89 -23 -89 -51 0 -20 4 -25 18 -21 82 24 124 29
237 29 86 0 150 -6 188 -16 50 -13 59 -13 64 -1 10 26 -6 42 -54 54 -72 18
-297 21 -364 6z"/>
<path d="M1005 1609 c-38 -5 -86 -14 -105 -19 -51 -14 -131 -12 -180 5 -24 8
-44 14 -46 13 -1 -2 -23 -39 -49 -82 l-46 -79 28 -51 c27 -50 28 -54 23 -166
-2 -63 -4 -187 -4 -275 -1 -149 1 -164 24 -210 56 -117 90 -147 143 -126 17 6
16 10 -11 40 -16 19 -42 59 -58 90 -29 56 -29 57 -28 231 1 96 3 218 5 270 3
83 1 102 -19 147 l-24 51 22 39 23 38 106 1 c58 0 149 6 202 14 79 10 114 11
190 0 133 -18 250 -23 279 -12 23 9 27 5 51 -35 26 -44 26 -45 9 -82 -28 -57
-38 -131 -28 -203 5 -34 10 -133 11 -218 2 -178 -9 -222 -76 -311 -21 -28 -36
-53 -33 -56 2 -3 19 -6 37 -6 30 -2 37 4 71 53 74 110 86 206 64 532 -9 133
-5 160 35 219 17 25 17 26 -22 88 -21 34 -39 65 -39 69 0 24 -24 29 -66 15
-49 -17 -109 -14 -274 11 -116 17 -116 17 -215 5z"/>
<path d="M1270 1470 c-21 -16 -43 -20 -127 -21 -57 -1 -103 -5 -103 -10 0 -19
41 -49 68 -50 22 0 19 -3 -18 -15 -56 -17 -70 -12 -70 26 0 70 -79 96 -129 44
-21 -23 -22 -29 -13 -66 l10 -40 -24 23 c-17 15 -24 33 -24 58 0 33 -1 34 -15
15 -8 -11 -15 -14 -15 -6 0 6 -12 12 -27 12 -16 0 -23 -4 -17 -8 18 -12 24
-40 8 -46 -8 -3 -14 -13 -14 -22 0 -14 3 -14 15 -4 13 11 14 10 9 -4 -4 -10 0
-18 12 -23 11 -3 21 -10 24 -13 3 -4 14 -12 25 -18 16 -9 17 -11 4 -12 -9 0
-22 7 -29 15 -14 16 -50 21 -50 6 0 -5 6 -12 13 -14 6 -3 2 -6 -10 -6 -28 -1
-31 -21 -3 -21 13 0 17 -5 14 -14 -4 -11 3 -13 35 -9 35 5 40 3 35 -11 -8 -20
10 -21 30 -1 11 11 30 14 66 12 39 -3 50 -1 50 11 0 11 7 13 28 9 16 -3 41 0
56 9 37 18 39 18 31 -8 -6 -19 -5 -21 6 -10 18 17 30 15 22 -4 -5 -13 -2 -15
18 -9 13 4 34 14 47 21 20 13 23 13 28 -1 8 -21 21 -19 27 5 3 12 14 20 26 20
12 0 21 4 21 10 0 5 20 8 44 7 28 -1 41 -6 35 -11 -5 -6 -9 -19 -9 -30 0 -17
2 -18 10 -6 8 12 10 11 10 -6 0 -12 7 -24 15 -28 12 -4 14 0 9 20 -6 24 -5 25
14 13 12 -7 25 -10 29 -6 4 5 1 12 -6 16 -8 5 -13 26 -13 50 l1 41 -42 -5 -42
-6 33 18 c24 13 32 23 32 45 0 15 -3 27 -7 27 -5 -1 -32 -1 -62 0 l-54 1 29
25 29 25 -35 -1 c-19 0 -46 -9 -60 -19z m-71 -56 c2 -2 -20 -4 -50 -4 -36 0
-49 3 -40 9 13 8 79 4 90 -5z m54 9 c-7 -2 -19 -2 -25 0 -7 3 -2 5 12 5 14 0
19 -2 13 -5z m132 -23 c-3 -5 -41 -9 -83 -9 -57 1 -69 3 -47 9 46 12 137 12
130 0z m-200 -69 c-3 -5 5 -11 17 -13 13 -2 2 -6 -24 -9 -27 -2 -48 -3 -48 -2
0 2 53 32 58 33 2 0 1 -4 -3 -9z"/>
<path d="M1300 1223 c-8 -3 -23 -13 -33 -22 -14 -11 -46 -17 -123 -19 -57 -3
-104 -7 -104 -11 1 -15 18 -31 50 -45 32 -14 33 -15 10 -16 -14 0 -35 -3 -47
-6 -22 -6 -23 -3 -37 59 -4 18 -17 31 -39 41 -35 15 -58 8 -91 -26 -16 -18
-18 -26 -9 -65 l11 -46 -24 29 c-13 16 -23 42 -24 58 0 24 -2 27 -15 16 -10
-9 -15 -9 -15 -1 0 6 -9 11 -20 11 -11 0 -20 -4 -20 -10 0 -5 4 -10 9 -10 13
0 7 -33 -7 -38 -7 -2 -12 -10 -12 -18 0 -8 6 -11 15 -8 11 5 13 2 9 -10 -4
-11 -1 -16 10 -16 9 0 25 -9 36 -20 24 -24 18 -26 -15 -4 -28 19 -56 9 -29
-10 15 -12 15 -13 -6 -12 -13 1 -25 -5 -27 -11 -3 -8 4 -13 16 -13 15 0 19 -4
14 -17 -5 -13 -2 -15 11 -10 10 4 29 10 42 13 19 5 23 3 18 -10 -7 -18 20 -23
31 -6 3 6 31 10 61 10 38 0 54 4 54 13 0 9 11 12 35 9 28 -3 44 3 86 34 34 24
54 34 57 26 2 -7 11 -13 20 -14 10 0 -3 -4 -27 -7 -34 -5 -46 -11 -53 -30 -6
-19 -5 -22 7 -17 9 3 15 0 15 -9 0 -13 5 -13 38 1 20 9 43 18 50 21 6 3 12 -2
12 -11 0 -24 18 -19 22 7 2 14 11 23 26 25 13 2 19 8 16 14 -5 7 2 9 22 4 16
-4 40 -8 53 -8 17 0 20 -3 12 -11 -6 -6 -11 -20 -11 -31 0 -16 3 -17 9 -8 6
10 10 9 14 -7 3 -12 10 -21 15 -21 6 0 8 8 5 19 -4 16 0 18 24 14 23 -5 26 -3
16 8 -7 7 -13 30 -13 51 0 38 0 38 -42 39 -24 1 -34 4 -23 6 30 8 45 23 45 48
0 23 -29 35 -88 35 l-25 0 23 25 23 25 -24 -1 c-13 0 -31 -3 -39 -6z m-23 -59
c-3 -3 -12 -4 -19 -1 -8 3 -5 6 6 6 11 1 17 -2 13 -5z m-80 -11 c-20 -2 -52
-2 -70 0 -17 2 0 4 38 4 39 0 53 -2 32 -4z m187 -12 c8 -13 -46 -21 -90 -13
l-39 6 30 7 c45 10 93 10 99 0z"/>
<path d="M1275 950 c-24 -15 -51 -19 -122 -21 -50 -1 -97 -5 -104 -10 -21 -13
18 -49 55 -50 29 0 28 -1 -14 -15 -56 -17 -70 -12 -70 26 0 69 -79 96 -127 45
-24 -25 -29 -50 -13 -60 5 -3 7 -12 3 -21 -10 -27 -43 14 -43 54 0 34 -1 35
-15 16 -8 -11 -15 -14 -15 -6 0 6 -11 12 -25 12 -25 0 -25 -1 -10 -24 14 -21
14 -24 0 -29 -8 -4 -15 -14 -15 -23 0 -14 2 -15 16 -3 15 12 16 11 10 -9 -6
-18 -4 -22 13 -22 12 0 21 -4 21 -8 0 -5 10 -14 23 -20 16 -8 17 -11 6 -11 -9
-1 -22 6 -29 14 -12 15 -50 21 -50 9 0 -4 7 -12 16 -19 15 -11 14 -12 -6 -11
-13 1 -25 -5 -28 -12 -2 -9 3 -12 14 -10 14 2 18 -2 16 -16 -2 -11 1 -15 8
-11 6 4 24 9 41 12 23 3 28 1 23 -11 -7 -19 10 -21 28 -3 8 8 32 12 66 10 41
-3 52 0 52 11 0 11 8 13 35 9 30 -5 42 0 82 31 26 20 53 34 61 31 7 -3 18 -5
23 -5 5 0 9 -4 9 -10 0 -5 -18 -10 -40 -10 -29 0 -42 -5 -50 -19 -14 -27 -13
-34 5 -27 9 3 15 0 15 -9 0 -12 9 -10 47 8 34 16 47 19 50 10 7 -19 20 -16 26
7 3 12 14 20 25 20 11 0 22 5 24 11 2 7 17 8 41 4 33 -7 36 -10 30 -33 -4 -17
-2 -23 6 -18 6 4 11 1 11 -8 0 -9 5 -16 10 -16 6 0 10 9 10 20 0 18 3 19 20 8
10 -7 23 -8 27 -4 4 5 2 11 -4 13 -8 3 -13 23 -13 49 l0 44 -42 -5 -43 -5 33
15 c25 12 32 21 32 43 0 21 -5 29 -17 29 -10 -1 -36 0 -57 1 l-39 2 23 25 23
25 -29 0 c-16 0 -43 -9 -59 -20z m-30 -50 c-11 -5 -49 -8 -85 -8 l-65 2 70 6
c102 9 102 9 80 0z m145 -20 c0 -6 -30 -10 -72 -9 -50 0 -67 3 -53 9 28 12
125 12 125 0z"/>
<path d="M535 656 c-121 -44 -195 -79 -195 -92 0 -7 20 -29 45 -51 l45 -39
-50 -97 c-49 -93 -50 -107 -5 -77 9 6 94 40 173 70 l32 12 0 93 0 92 60 16 60
17 -32 45 c-18 25 -34 45 -37 44 -3 0 -46 -15 -96 -33z"/>
<path d="M1565 671 c-3 -10 -14 -26 -25 -36 -11 -10 -20 -22 -20 -26 0 -5 25
-16 55 -24 l55 -16 0 -92 1 -92 124 -51 c69 -28 125 -49 125 -46 0 3 -21 46
-46 95 l-46 89 48 49 48 49 -75 34 c-66 30 -216 86 -232 86 -3 0 -8 -8 -12
-19z"/>
<path d="M950 624 c-85 -10 -187 -29 -263 -49 l-82 -21 -3 -123 c-2 -114 -1
-123 15 -117 32 13 157 43 233 57 48 9 143 14 265 13 196 0 280 -11 431 -54
38 -11 70 -20 71 -20 2 0 3 53 3 119 l0 119 -47 15 c-27 8 -70 20 -98 26 -27
6 -72 15 -100 22 -50 11 -360 21 -425 13z m394 -170 c3 -8 2 -12 -4 -9 -6 3
-10 10 -10 16 0 14 7 11 14 -7z"/>
</g>
</svg>
